<?xml version="1.0" encoding="UTF-8" standalone="no"?>
<!DOCTYPE svg PUBLIC "-//W3C//DTD SVG 1.1//EN" "http://www.w3.org/Graphics/SVG/1.1/DTD/svg11.dtd">
<svg xmlns="http://www.w3.org/2000/svg" version="1.1" viewBox="0.00 0.00 500.00 110.00">
<path fill="#000000" d="
  M 352.23 67.79
  A 0.39 0.39 0.0 0 0 351.63 67.34
  Q 346.51 71.33 340.39 73.20
  Q 333.15 75.41 331.27 67.89
  A 0.59 0.59 0.0 0 0 330.26 67.63
  C 327.92 70.13 324.28 73.49 320.98 74.71
  C 316.97 76.19 313.95 72.58 314.03 68.77
  Q 314.06 66.79 312.66 68.19
  Q 309.09 71.75 304.00 74.77
  C 296.45 79.25 292.47 71.96 295.07 65.52
  Q 296.58 61.79 298.75 58.97
  Q 300.32 56.95 302.29 58.59
  L 302.78 59.00
  Q 304.90 60.76 303.39 63.06
  Q 301.84 65.43 300.64 67.71
  Q 300.22 68.50 300.33 69.24
  A 0.67 0.66 65.4 0 0 301.42 69.65
  L 317.49 55.69
  A 1.39 1.39 0.0 0 1 318.90 55.44
  C 323.92 57.43 320.62 63.99 319.60 67.57
  Q 319.40 68.28 320.11 68.45
  Q 320.86 68.64 321.82 68.06
  Q 326.36 65.34 330.18 61.72
  Q 331.82 60.17 332.61 57.79
  Q 340.86 33.29 350.73 9.35
  Q 351.84 6.65 353.97 8.64
  L 354.40 9.04
  Q 356.49 10.97 355.39 13.60
  Q 345.67 36.85 337.42 61.36
  C 336.64 63.70 335.84 65.48 335.87 68.03
  A 0.35 0.35 0.0 0 0 336.29 68.37
  C 342.05 67.20 354.01 62.96 356.42 57.04
  Q 364.26 37.76 373.44 19.13
  Q 374.67 16.64 376.57 18.66
  L 377.40 19.54
  Q 379.06 21.30 377.99 23.46
  Q 370.47 38.72 363.92 54.42
  Q 362.72 57.31 364.75 55.08
  C 367.69 51.84 375.70 52.04 373.85 58.08
  Q 371.83 64.66 365.77 67.16
  A 1.74 1.73 -21.5 0 0 364.80 69.38
  Q 366.41 73.69 370.57 75.81
  Q 372.71 76.90 370.98 78.56
  L 370.13 79.37
  Q 368.10 81.33 365.67 79.90
  Q 360.20 76.68 359.33 70.33
  Q 359.11 68.72 358.34 70.15
  L 355.67 75.08
  A 1.89 1.89 0.0 0 1 352.75 75.60
  L 351.68 74.64
  A 3.06 3.05 31.7 0 1 350.87 71.24
  L 352.23 67.79
  Z"
/>
<path fill="#000000" d="
  M 137.32 59.40
  Q 137.67 58.22 136.62 58.86
  Q 126.09 65.18 117.71 74.12
  A 1.79 1.78 33.7 0 1 115.68 74.52
  C 110.97 72.39 111.00 67.02 112.61 62.47
  Q 117.43 48.86 124.11 35.82
  A 0.20 0.20 0.0 0 0 123.93 35.53
  L 116.77 35.51
  A 0.36 0.36 0.0 0 0 116.45 35.71
  C 107.91 53.74 101.64 72.72 101.44 92.88
  Q 101.41 95.35 99.35 93.99
  L 98.45 93.39
  Q 96.39 92.03 96.43 89.56
  C 96.70 71.22 101.97 53.78 109.51 37.05
  Q 110.05 35.84 108.73 35.96
  L 93.07 37.36
  A 2.28 2.26 9.8 0 0 91.22 38.65
  L 83.68 54.69
  A 0.58 0.57 13.9 0 0 84.18 55.51
  Q 90.33 55.75 96.20 57.55
  Q 98.27 58.18 98.68 60.30
  L 98.77 60.76
  Q 99.17 62.80 97.17 62.25
  Q 89.58 60.16 81.72 60.36
  Q 81.27 60.37 81.09 60.79
  Q 75.96 72.68 73.98 82.50
  Q 73.76 83.61 74.75 84.38
  Q 75.09 84.65 75.33 85.01
  Q 76.27 86.42 75.50 87.76
  Q 75.26 88.19 74.79 88.06
  C 68.97 86.51 68.57 81.04 69.84 76.01
  Q 71.79 68.27 74.54 61.26
  Q 74.86 60.46 74.00 60.50
  Q 61.71 61.11 50.54 62.85
  Q 48.32 63.20 47.30 64.57
  Q 35.73 80.09 27.71 97.02
  Q 26.49 99.60 24.22 97.86
  L 23.95 97.64
  Q 21.73 95.93 22.92 93.39
  Q 29.51 79.40 38.19 66.64
  Q 39.17 65.20 37.48 65.64
  Q 24.74 69.01 12.54 73.99
  Q 9.92 75.06 8.09 72.90
  L 7.81 72.57
  Q 5.88 70.28 8.64 69.13
  Q 24.85 62.32 43.00 58.79
  Q 43.92 58.61 44.76 57.52
  Q 60.16 37.65 79.83 22.08
  C 83.78 18.95 89.75 14.78 93.75 13.51
  Q 96.11 12.76 97.51 15.24
  C 100.42 20.36 97.39 26.28 94.81 31.04
  Q 94.72 31.21 94.71 31.37
  Q 94.69 31.75 95.07 31.72
  L 111.83 30.38
  A 0.76 0.76 0.0 0 0 112.47 29.94
  L 118.13 17.97
  Q 119.31 15.47 121.25 17.43
  L 121.96 18.14
  Q 123.78 19.97 122.67 22.30
  L 118.92 30.17
  A 0.21 0.20 12.5 0 0 119.11 30.46
  L 126.59 30.48
  Q 126.85 30.48 126.98 30.26
  L 135.66 15.97
  Q 137.16 13.51 139.02 15.71
  L 139.73 16.55
  Q 141.33 18.44 140.04 20.55
  L 134.04 30.32
  A 0.55 0.55 0.0 0 0 134.47 31.16
  Q 142.54 31.70 149.63 35.56
  Q 151.08 36.35 151.16 37.99
  L 151.18 38.51
  A 1.19 1.19 0.0 0 1 149.51 39.66
  Q 140.82 35.83 131.26 35.99
  A 0.83 0.83 0.0 0 0 130.52 36.44
  Q 123.63 49.42 118.54 63.23
  Q 117.65 65.64 119.53 63.88
  Q 125.77 58.04 134.28 53.27
  C 136.68 51.91 138.72 51.24 141.00 53.28
  C 144.64 56.53 142.81 61.93 141.25 65.79
  A 0.57 0.56 -88.2 0 0 141.95 66.54
  C 147.10 64.86 154.07 62.51 158.18 58.95
  C 162.33 55.37 166.36 52.89 171.20 57.44
  Q 171.57 57.79 172.07 57.80
  C 174.59 57.87 176.56 57.82 177.48 60.57
  C 178.19 62.70 176.34 67.19 175.66 69.51
  A 0.77 0.77 0.0 0 0 176.46 70.49
  C 180.57 70.15 190.31 63.65 193.23 60.68
  Q 195.23 58.64 195.65 55.82
  A 1.68 1.68 0.0 0 1 198.56 54.95
  L 200.61 57.23
  Q 201.01 57.67 201.48 57.31
  C 206.18 53.69 211.29 54.32 213.34 60.01
  A 0.95 0.95 0.0 0 1 212.47 61.28
  L 211.18 61.32
  Q 210.65 61.34 210.38 60.89
  Q 209.53 59.47 208.44 60.14
  Q 199.35 65.70 194.50 75.56
  A 1.44 1.44 0.0 0 1 192.65 76.25
  Q 188.85 74.62 190.04 70.64
  Q 190.63 68.65 189.03 69.97
  C 184.07 74.06 174.02 80.39 170.68 70.34
  C 170.24 69.00 170.65 67.77 170.48 66.30
  Q 170.39 65.61 169.86 66.06
  C 165.59 69.63 160.87 73.85 155.72 76.01
  A 1.26 1.24 44.0 0 1 154.77 76.02
  Q 151.69 74.81 151.77 71.71
  C 151.80 70.73 152.61 69.63 152.47 68.35
  Q 152.40 67.78 151.92 68.09
  C 148.60 70.19 142.64 73.49 138.78 72.06
  C 132.92 69.88 136.05 63.56 137.32 59.40
  Z
  M 78.76 34.78
  A 1.81 1.55 8.6 0 1 80.00 34.01
  L 86.00 33.19
  A 2.52 2.52 0.0 0 0 87.96 31.72
  L 92.44 21.78
  Q 92.99 20.56 91.85 21.26
  C 77.87 29.83 64.60 43.25 54.07 55.80
  Q 52.91 57.19 54.70 56.93
  Q 65.47 55.38 76.35 55.34
  Q 76.92 55.34 77.17 54.82
  L 84.16 39.69
  A 0.39 0.39 0.0 0 0 83.79 39.13
  Q 80.16 39.33 78.75 35.72
  Q 78.53 35.15 78.76 34.78
  Z
  M 165.95 61.39
  Q 166.29 61.45 166.51 61.18
  Q 166.76 60.88 166.37 60.81
  Q 164.99 60.59 164.41 61.74
  A 0.32 0.32 0.0 0 0 164.76 62.20
  Q 165.38 62.07 165.71 61.50
  Q 165.79 61.36 165.95 61.39
  Z"
/>
<path fill="#000000" d="
  M 278.36 53.38
  Q 301.90 31.82 332.50 22.53
  Q 335.15 21.72 336.88 23.87
  L 337.27 24.35
  Q 339.08 26.59 336.32 27.40
  Q 306.24 36.25 283.04 57.54
  C 282.22 58.28 282.51 59.38 282.63 60.40
  Q 284.60 76.34 297.85 83.37
  Q 300.11 84.57 298.39 86.48
  L 297.78 87.16
  A 3.38 3.37 34.0 0 1 293.80 87.93
  C 284.35 83.35 279.00 73.94 277.47 63.76
  Q 277.38 63.12 276.93 63.59
  Q 264.39 76.45 255.76 92.21
  Q 254.43 94.64 252.04 93.24
  L 251.34 92.83
  Q 249.27 91.62 250.39 89.50
  Q 252.85 84.84 253.91 83.18
  C 265.33 65.37 275.37 46.48 282.22 26.41
  Q 283.06 23.93 280.77 25.20
  C 278.72 26.33 275.93 27.17 273.89 28.16
  Q 258.57 35.64 247.74 47.97
  Q 245.88 50.10 243.66 48.34
  L 243.42 48.16
  Q 240.86 46.14 243.04 43.72
  Q 257.78 27.38 277.96 19.94
  C 283.84 17.77 288.48 24.32 287.05 29.51
  C 284.78 37.77 281.25 45.23 277.71 52.91
  Q 276.85 54.76 278.36 53.38
  Z"
/>
<ellipse fill="#000000" cx="0.00" cy="0.00" transform="translate(484.94,46.30) rotate(95.5)" rx="3.99" ry="3.05"/>
<path fill="#000000" d="
  M 222.28 66.79
  Q 226.92 60.22 229.84 52.69
  Q 230.82 50.16 232.80 52.02
  L 233.61 52.78
  Q 235.42 54.48 234.50 56.79
  Q 231.26 64.93 225.82 72.27
  C 224.07 74.62 222.51 76.84 219.75 75.97
  C 213.69 74.06 216.97 60.48 218.63 56.64
  Q 219.53 54.56 221.23 56.06
  L 222.36 57.05
  A 3.30 3.29 31.1 0 1 223.26 60.69
  Q 222.19 63.54 221.61 66.50
  Q 221.27 68.20 222.28 66.79
  Z"
/>
<path fill="#000000" d="
  M 391.02 66.39
  A 0.36 0.35 -15.7 0 0 390.44 66.07
  C 385.85 69.73 381.70 73.51 376.17 76.05
  A 1.15 1.15 0.0 0 1 375.21 76.05
  C 372.97 75.04 371.94 73.11 372.54 70.58
  C 374.35 62.98 383.05 49.15 391.97 57.70
  Q 392.32 58.03 392.78 57.91
  Q 396.09 57.03 397.77 60.04
  C 399.18 62.59 395.44 69.45 396.28 70.26
  A 1.18 0.97 53.4 0 0 397.42 70.54
  Q 406.08 67.11 413.02 61.29
  C 415.09 59.56 415.78 57.48 416.60 55.03
  Q 416.79 54.45 417.40 54.52
  Q 419.80 54.80 420.78 57.04
  Q 421.01 57.57 421.55 57.39
  Q 422.32 57.14 423.42 56.50
  Q 429.91 52.75 433.75 59.34
  A 1.32 1.31 75.0 0 1 432.61 61.32
  Q 431.33 61.31 430.52 60.52
  A 1.54 1.53 -38.6 0 0 428.63 60.31
  Q 419.71 65.86 415.16 75.35
  A 1.74 1.73 25.7 0 1 412.84 76.16
  Q 409.30 74.44 410.51 70.65
  Q 411.19 68.55 409.54 70.01
  C 406.40 72.78 399.61 77.37 395.13 75.08
  Q 390.19 72.54 391.02 66.39
  Z
  M 385.36 61.56
  Q 385.22 61.83 384.92 62.00
  Q 384.63 62.16 384.89 62.37
  Q 385.03 62.48 385.28 62.39
  Q 385.86 62.18 387.02 61.21
  Q 387.42 60.88 386.91 60.78
  Q 385.87 60.57 385.36 61.56
  Z"
/>
<path fill="#000000" d="
  M 471.74 66.24
  Q 465.09 70.36 458.45 74.45
  C 452.21 78.29 447.29 72.97 450.39 66.73
  Q 451.53 64.43 449.31 65.72
  Q 443.37 69.16 438.22 75.20
  Q 437.45 76.11 436.41 76.66
  Q 435.96 76.90 435.50 76.67
  C 432.98 75.43 432.08 73.29 433.00 70.51
  Q 435.14 63.97 438.80 58.11
  Q 439.09 57.66 439.62 57.73
  Q 442.50 58.14 443.24 61.01
  A 0.95 0.94 -24.0 0 0 444.68 61.56
  C 447.44 59.69 456.00 54.41 459.15 56.11
  C 463.39 58.39 459.09 63.78 457.70 66.26
  Q 456.40 68.59 458.80 67.42
  Q 465.16 64.31 472.26 61.18
  C 474.94 60.00 475.93 58.57 477.19 56.15
  Q 478.28 54.06 480.22 55.40
  L 480.99 55.94
  A 2.99 2.98 30.3 0 1 481.98 59.71
  L 478.05 67.77
  A 0.72 0.72 0.0 0 0 478.97 68.75
  Q 487.73 65.26 495.21 59.54
  A 2.00 1.99 -34.5 0 1 498.11 60.07
  L 498.34 60.44
  A 1.65 1.64 -36.7 0 1 498.03 62.53
  C 492.46 67.48 473.11 84.01 472.33 66.55
  Q 472.30 65.90 471.74 66.24
  Z"
/>
</svg>
