<?xml version="1.0" encoding="UTF-8" standalone="no"?>
<!DOCTYPE svg PUBLIC "-//W3C//DTD SVG 1.1//EN" "http://www.w3.org/Graphics/SVG/1.1/DTD/svg11.dtd">
<svg xmlns="http://www.w3.org/2000/svg" version="1.1" viewBox="0.00 0.00 500.00 110.00">
<path fill="#ffffff" d="
  M 364.42 57.14
  C 366.70 54.74 371.57 53.25 373.69 56.87
  C 376.14 61.05 368.88 67.71 365.70 69.00
  A 1.65 1.64 -20.1 0 0 364.75 71.04
  Q 366.21 75.49 370.44 77.54
  Q 372.54 78.56 370.93 80.26
  L 369.78 81.48
  Q 368.29 83.06 366.37 82.06
  Q 360.14 78.82 359.24 71.80
  Q 359.11 70.72 358.57 71.66
  L 355.48 77.10
  A 1.61 1.60 -56.1 0 1 353.10 77.57
  L 351.57 76.37
  A 2.62 2.62 0.0 0 1 350.74 73.35
  L 352.33 69.27
  Q 352.66 68.41 351.94 68.98
  Q 348.37 71.79 344.12 73.54
  C 338.10 76.01 333.60 77.15 331.06 69.73
  Q 330.81 69.03 330.29 69.55
  C 328.17 71.69 321.81 77.66 318.43 76.73
  Q 313.94 75.50 313.91 69.79
  Q 313.90 68.92 313.27 69.52
  C 309.97 72.64 301.42 80.66 296.47 76.73
  C 291.55 72.83 295.90 64.25 299.04 60.46
  Q 300.55 58.64 302.21 60.31
  L 303.05 61.16
  Q 304.83 62.95 303.36 64.99
  Q 301.44 67.67 300.23 70.73
  Q 299.49 72.61 301.10 71.40
  Q 309.49 65.06 316.98 57.67
  A 1.93 1.92 42.4 0 1 319.55 57.56
  C 321.27 58.99 322.23 60.12 321.54 62.51
  Q 320.44 66.33 319.44 70.00
  A 0.48 0.47 -5.5 0 0 320.11 70.55
  Q 325.74 67.74 330.19 63.55
  Q 331.82 62.01 332.62 59.61
  Q 340.73 35.34 350.87 10.87
  Q 351.78 8.66 353.57 10.23
  L 354.75 11.26
  Q 356.48 12.77 355.60 14.89
  Q 344.98 40.40 336.32 66.78
  Q 335.79 68.41 335.89 69.81
  Q 335.93 70.42 336.53 70.28
  C 342.80 68.70 353.96 64.89 356.58 58.47
  Q 364.37 39.33 373.46 20.87
  Q 374.58 18.61 376.38 20.38
  L 377.56 21.54
  A 2.99 2.98 35.6 0 1 378.14 24.99
  Q 370.44 40.65 363.74 56.75
  Q 362.92 58.72 364.42 57.14
  Z"
/>
<path fill="#ffffff" d="
  M 190.13 71.03
  Q 185.47 74.88 180.51 76.97
  C 174.60 79.46 169.15 73.99 170.62 68.12
  Q 170.87 67.10 170.06 67.77
  C 165.66 71.37 160.90 75.61 155.55 77.80
  Q 155.10 77.99 154.65 77.78
  C 150.41 75.83 151.94 73.25 152.67 69.86
  A 0.22 0.22 0.0 0 0 152.34 69.62
  C 149.12 71.65 141.95 75.74 138.24 73.69
  C 133.02 70.80 136.11 64.92 137.48 60.82
  Q 137.74 60.05 137.03 60.46
  Q 126.22 66.76 117.70 75.97
  A 1.94 1.94 0.0 0 1 115.07 76.17
  C 110.74 72.77 111.02 69.33 112.76 64.21
  Q 117.43 50.55 124.13 37.61
  A 0.13 0.13 0.0 0 0 124.01 37.42
  L 116.78 37.37
  Q 116.56 37.37 116.46 37.58
  C 107.96 55.58 101.63 74.54 101.47 94.69
  Q 101.45 97.23 99.32 95.86
  L 98.46 95.31
  A 4.44 4.42 16.8 0 1 96.42 91.53
  C 96.64 72.16 102.47 56.09 109.56 38.44
  Q 109.89 37.60 108.99 37.69
  L 92.36 39.26
  A 1.02 1.01 -79.7 0 0 91.53 39.84
  L 83.73 56.47
  Q 83.33 57.31 84.26 57.35
  Q 90.45 57.57 96.32 59.46
  Q 98.29 60.10 98.79 62.11
  L 98.89 62.49
  Q 99.44 64.68 97.25 64.08
  Q 89.64 61.98 81.73 62.17
  Q 81.30 62.18 81.13 62.57
  Q 76.01 74.46 73.98 84.25
  Q 73.73 85.47 74.84 86.27
  A 2.57 2.42 4.6 0 1 75.49 86.99
  Q 76.30 88.36 75.44 89.68
  Q 75.14 90.15 74.62 89.95
  Q 67.80 87.29 69.51 79.49
  Q 71.38 70.91 74.64 62.84
  A 0.37 0.37 0.0 0 0 74.29 62.33
  Q 61.46 62.79 48.80 65.00
  A 1.61 1.59 13.0 0 0 47.78 65.63
  Q 35.95 81.46 27.47 99.30
  Q 26.39 101.58 24.47 99.94
  L 23.56 99.17
  Q 21.76 97.64 22.77 95.51
  Q 29.51 81.18 38.42 68.10
  Q 39.07 67.14 37.95 67.42
  Q 24.76 70.63 12.24 75.92
  Q 10.06 76.84 8.46 75.10
  L 7.55 74.09
  Q 5.81 72.19 8.19 71.19
  Q 25.23 64.05 43.35 60.53
  Q 43.84 60.43 44.17 60.05
  Q 48.10 55.38 52.04 50.77
  Q 66.11 34.29 81.84 22.34
  Q 86.43 18.84 92.94 15.80
  C 95.14 14.77 96.80 15.36 97.82 17.45
  C 100.24 22.39 97.28 28.63 94.79 33.00
  A 0.36 0.36 0.0 0 0 95.13 33.54
  L 111.87 32.27
  Q 112.25 32.24 112.41 31.90
  L 118.07 19.88
  Q 119.34 17.20 121.35 19.38
  L 122.10 20.19
  Q 123.77 21.99 122.70 24.20
  L 118.90 32.03
  A 0.16 0.16 0.0 0 0 119.04 32.26
  L 126.69 32.31
  A 0.27 0.26 -72.6 0 0 126.91 32.19
  L 135.79 17.58
  Q 137.05 15.51 138.69 17.30
  L 139.98 18.71
  Q 141.38 20.23 140.30 21.99
  L 134.01 32.27
  Q 133.59 32.96 134.39 33.01
  Q 142.56 33.55 149.75 37.47
  Q 151.14 38.22 151.23 39.80
  L 151.25 40.25
  A 1.17 1.17 0.0 0 1 149.66 41.41
  C 142.73 38.75 138.31 38.11 131.85 37.68
  Q 130.86 37.61 130.39 38.50
  Q 123.34 51.96 118.28 65.75
  Q 118.16 66.09 118.27 66.33
  A 0.28 0.28 0.0 0 0 118.71 66.42
  Q 126.22 59.58 134.95 54.68
  Q 138.38 52.76 140.89 54.92
  C 144.96 58.43 142.57 64.11 141.06 68.08
  A 0.33 0.33 0.0 0 0 141.47 68.52
  Q 148.57 66.19 155.25 62.95
  C 157.94 61.64 159.95 58.60 162.62 57.50
  Q 167.54 55.49 171.57 59.61
  Q 171.92 59.97 172.38 59.80
  C 175.17 58.77 178.48 61.64 177.57 64.61
  Q 176.45 68.26 175.68 71.46
  A 0.86 0.85 -4.4 0 0 176.84 72.45
  Q 185.57 68.86 192.53 63.15
  C 194.69 61.38 195.22 59.32 196.13 56.81
  Q 196.36 56.18 197.02 56.32
  Q 199.39 56.84 200.46 59.04
  Q 200.83 59.80 201.42 59.20
  C 204.66 55.93 209.61 56.16 212.43 59.63
  Q 213.61 61.09 213.24 62.31
  A 1.51 1.51 0.0 0 1 210.61 62.81
  Q 210.19 62.27 209.51 61.87
  Q 209.06 61.61 208.61 61.87
  C 201.83 65.74 198.01 71.10 194.15 77.68
  A 1.28 1.28 0.0 0 1 192.17 77.97
  L 190.18 76.13
  A 2.26 2.25 -58.4 0 1 189.60 73.67
  L 190.49 71.29
  Q 190.80 70.48 190.13 71.03
  Z
  M 81.50 40.73
  Q 79.34 39.59 78.56 37.30
  A 0.97 0.97 0.0 0 1 79.32 36.02
  L 86.53 34.80
  Q 87.46 34.65 87.85 33.79
  L 92.41 23.65
  Q 92.93 22.51 91.84 23.14
  Q 86.94 25.95 82.00 30.01
  Q 66.59 42.69 53.76 57.97
  Q 52.93 58.95 54.20 58.77
  Q 65.23 57.18 76.38 57.24
  Q 76.89 57.24 77.11 56.77
  L 84.28 41.25
  A 0.39 0.39 0.0 0 0 83.78 40.73
  Q 83.07 41.02 82.33 40.97
  Q 81.89 40.94 81.50 40.73
  Z
  M 167.4715 61.7924
  A 3.38 0.40 -37.5 0 0 164.5465 63.5327
  A 3.38 0.40 -37.5 0 0 162.1085 65.9076
  A 3.38 0.40 -37.5 0 0 165.0335 64.1673
  A 3.38 0.40 -37.5 0 0 167.4715 61.7924
  Z"
/>
<path fill="#ffffff" d="
  M 277.51 55.40
  A 0.23 0.23 0.0 0 0 277.88 55.65
  Q 301.51 33.74 332.42 24.42
  Q 335.09 23.61 336.89 25.75
  L 337.24 26.17
  Q 339.07 28.35 336.34 29.17
  Q 306.10 38.19 282.89 59.50
  Q 282.51 59.85 282.53 60.36
  C 282.84 70.53 288.60 80.87 297.95 85.12
  Q 300.39 86.23 298.51 88.14
  L 297.59 89.07
  Q 295.91 90.78 293.75 89.73
  C 284.39 85.17 278.67 75.38 277.47 65.29
  A 0.19 0.19 0.0 0 0 277.15 65.18
  Q 264.38 78.27 255.61 94.34
  Q 254.10 97.10 251.81 94.93
  L 251.46 94.59
  Q 249.37 92.61 250.88 90.15
  C 263.04 70.38 274.21 51.00 281.99 29.00
  Q 282.26 28.25 282.20 26.83
  Q 282.18 26.33 281.73 26.55
  C 278.59 28.08 275.03 29.31 272.26 30.75
  Q 257.80 38.25 247.22 50.33
  Q 245.68 52.09 243.96 50.51
  L 242.88 49.51
  Q 241.08 47.87 242.69 46.03
  Q 257.42 29.25 278.05 21.81
  C 284.42 19.51 288.54 26.61 286.84 32.26
  C 283.99 41.78 280.67 47.62 277.51 55.40
  Z"
/>
<path fill="#ffffff" d="
  M 481.78 47.81
  L 483.10 45.16
  A 1.98 1.98 0.0 0 1 486.20 44.57
  L 487.68 45.91
  A 1.98 1.98 0.0 0 1 488.15 48.23
  L 486.80 51.07
  A 1.98 1.98 0.0 0 1 483.58 51.59
  L 482.12 50.07
  A 1.98 1.98 0.0 0 1 481.78 47.81
  Z"
/>
<path fill="#ffffff" d="
  M 222.03 68.98
  Q 226.90 62.19 229.89 54.38
  Q 230.75 52.16 232.55 53.71
  L 233.76 54.75
  Q 235.47 56.22 234.64 58.31
  C 233.18 62.02 222.51 86.14 217.07 74.88
  C 214.96 70.52 216.79 62.54 218.69 58.45
  Q 219.64 56.38 221.31 57.95
  L 222.44 59.02
  Q 224.05 60.54 223.24 62.59
  Q 222.06 65.60 221.54 68.77
  Q 221.35 69.92 222.03 68.98
  Z"
/>
<path fill="#ffffff" d="
  M 410.53 71.20
  C 407.60 73.22 404.91 75.36 401.44 76.77
  C 396.41 78.81 391.86 76.41 390.93 70.99
  C 390.77 70.08 391.16 69.00 391.12 67.98
  Q 391.10 67.33 390.59 67.74
  C 385.92 71.51 381.67 75.06 376.29 77.80
  A 1.14 1.13 41.0 0 1 375.38 77.86
  C 372.86 76.94 371.84 75.04 372.50 72.34
  C 374.17 65.60 381.86 52.74 390.29 58.09
  C 390.85 58.45 391.46 59.15 392.10 59.66
  Q 392.49 59.98 392.96 59.78
  C 395.52 58.68 398.75 61.51 398.06 64.23
  Q 397.11 68.00 396.05 71.85
  A 0.46 0.46 0.0 0 0 396.61 72.41
  C 402.44 70.94 408.10 67.04 412.80 63.34
  C 414.89 61.69 415.72 59.66 416.43 57.24
  A 1.29 1.28 -68.0 0 1 418.26 56.46
  Q 419.96 57.36 420.98 58.99
  Q 421.38 59.62 421.97 59.15
  Q 428.58 53.84 433.41 60.56
  A 2.01 2.01 0.0 0 1 433.73 62.23
  Q 433.44 63.38 432.33 63.30
  C 431.38 63.23 430.81 62.52 429.98 62.00
  Q 429.51 61.70 429.02 61.96
  C 422.96 65.08 418.11 71.32 414.94 77.31
  A 1.64 1.64 0.0 0 1 412.43 77.79
  L 411.12 76.67
  Q 409.51 75.30 410.23 73.31
  L 410.90 71.49
  Q 411.16 70.78 410.53 71.20
  Z
  M 388.1768 61.6230
  A 3.56 0.40 -37.7 0 0 385.1154 63.4835
  A 3.56 0.40 -37.7 0 0 382.5432 65.9770
  A 3.56 0.40 -37.7 0 0 385.6046 64.1165
  A 3.56 0.40 -37.7 0 0 388.1768 61.6230
  Z"
/>
<path fill="#ffffff" d="
  M 450.90 67.08
  A 0.26 0.26 0.0 0 0 450.53 66.75
  Q 442.86 71.20 437.17 78.01
  A 1.61 1.61 0.0 0 1 434.92 78.23
  Q 433.35 76.94 432.51 75.04
  A 1.29 1.29 0.0 0 1 432.45 74.16
  Q 434.61 66.75 438.63 60.15
  A 1.33 1.32 27.0 0 1 440.28 59.62
  Q 442.88 60.74 443.51 63.43
  Q 443.65 64.01 444.14 63.68
  Q 450.02 59.72 456.75 57.50
  A 2.30 2.30 0.0 0 1 458.24 57.53
  C 461.16 58.64 461.71 60.83 460.19 63.54
  Q 458.58 66.40 457.16 69.19
  Q 456.63 70.23 457.68 69.72
  Q 464.99 66.19 472.80 62.76
  C 475.22 61.70 476.04 60.14 477.17 57.93
  Q 478.33 55.66 480.29 57.29
  L 481.11 57.97
  Q 482.91 59.46 481.90 61.58
  L 477.86 70.10
  A 0.44 0.44 0.0 0 0 478.41 70.70
  Q 487.38 67.37 494.98 61.54
  Q 496.79 60.16 498.18 61.96
  L 498.41 62.27
  A 1.46 1.45 -39.1 0 1 498.20 64.26
  C 493.30 68.43 486.22 74.26 480.13 76.12
  C 475.30 77.61 471.90 72.46 472.38 68.17
  Q 472.45 67.58 471.94 67.89
  Q 465.21 72.04 458.53 76.22
  C 456.86 77.26 453.84 78.02 451.96 76.94
  C 447.88 74.58 449.43 70.38 450.90 67.08
  Z"
/>
</svg>
